<svg id="svg" xmlns="http://www.w3.org/2000/svg" xmlns:xlink="http://www.w3.org/1999/xlink" width="400" height="399.21259842519686" viewBox="0, 0, 400,399.21259842519686"><g id="svgg"><path id="path0" d="M188.412 3.798 C 184.675 4.073,180.809 4.409,179.820 4.546 C 171.164 5.742,168.466 6.177,163.237 7.220 C 149.684 9.922,146.653 11.061,146.653 13.448 C 146.653 15.014,157.794 37.297,159.180 38.503 C 160.093 39.298,162.078 39.261,165.834 38.381 C 169.076 37.622,175.681 36.406,179.021 35.955 C 189.139 34.586,206.738 34.060,215.185 34.873 C 226.816 35.993,234.973 37.438,245.355 40.219 C 281.561 49.917,314.538 72.769,336.687 103.510 C 348.133 119.397,357.181 137.782,361.852 154.645 C 363.727 161.414,363.916 162.132,364.438 164.436 C 365.317 168.313,365.590 169.647,365.829 171.229 C 365.961 172.108,366.253 173.906,366.478 175.225 C 368.600 187.700,369.042 209.244,367.430 221.578 C 363.644 250.549,353.597 276.250,337.046 299.301 C 313.250 332.443,278.070 355.728,237.962 364.885 C 233.605 365.880,230.941 366.322,218.781 368.073 C 213.894 368.777,189.740 368.788,184.815 368.089 C 175.127 366.714,171.849 366.144,163.836 364.442 C 125.646 356.327,86.776 329.329,64.298 295.305 C 53.209 278.519,43.664 256.857,40.879 242.158 C 39.778 236.340,40.443 236.563,24.194 236.563 C 8.711 236.563,8.980 236.502,9.005 240.025 C 9.037 244.440,14.365 263.500,18.873 275.325 C 19.418 276.753,20.197 279.001,20.605 280.320 C 21.566 283.429,29.025 298.169,32.683 304.187 C 56.488 343.350,91.837 372.879,133.560 388.455 C 142.615 391.836,148.790 393.658,152.448 394.028 C 154.206 394.206,157.173 394.720,159.041 395.171 C 160.909 395.622,164.955 396.425,168.032 396.957 C 173.251 397.858,175.539 398.164,184.815 399.197 C 186.793 399.418,194.282 399.599,201.456 399.599 C 345.858 399.612,440.462 252.693,381.831 119.481 C 365.634 82.680,337.304 51.575,299.500 29.086 C 268.830 10.840,225.811 1.047,188.412 3.798 M120.679 21.578 C 119.471 22.217,118.622 22.748,118.795 22.758 C 119.219 22.784,123.077 20.815,123.077 20.573 C 123.077 20.306,123.132 20.282,120.679 21.578 M72.428 52.988 C 71.392 54.170,71.240 54.683,72.150 53.928 C 72.716 53.458,73.711 51.938,73.441 51.955 C 73.378 51.959,72.922 52.424,72.428 52.988 M67.992 57.457 C 67.256 58.192,66.728 58.870,66.820 58.962 C 66.912 59.054,67.592 58.505,68.332 57.742 C 69.071 56.980,69.598 56.302,69.503 56.237 C 69.408 56.172,68.728 56.721,67.992 57.457 M62.522 62.038 L 60.539 64.136 62.637 62.153 C 64.587 60.310,64.919 59.940,64.620 59.940 C 64.557 59.940,63.613 60.884,62.522 62.038 M56.743 68.643 C 55.965 69.411,55.701 69.842,56.148 69.614 C 57.046 69.157,58.560 67.600,58.306 67.395 C 58.216 67.323,57.512 67.884,56.743 68.643 M55.145 71.528 C 55.145 72.188,55.280 72.727,55.445 72.727 C 55.609 72.727,55.744 72.188,55.744 71.528 C 55.744 70.869,55.609 70.330,55.445 70.330 C 55.280 70.330,55.145 70.869,55.145 71.528 M93.940 74.079 L 92.976 75.325 94.119 74.238 C 94.748 73.640,95.182 73.079,95.084 72.992 C 94.985 72.904,94.471 73.393,93.940 74.079 M63.936 82.118 C 68.658 86.843,72.610 90.709,72.720 90.709 C 72.830 90.709,69.057 86.843,64.336 82.118 C 59.614 77.393,55.661 73.526,55.551 73.526 C 55.442 73.526,59.215 77.393,63.936 82.118 M90.139 77.485 L 88.969 78.921 90.318 77.635 C 91.060 76.928,91.587 76.282,91.488 76.199 C 91.389 76.116,90.782 76.695,90.139 77.485 M83.317 83.600 C 80.679 86.191,78.701 88.309,78.921 88.306 C 79.392 88.300,88.562 79.215,88.294 79.020 C 88.194 78.947,85.954 81.008,83.317 83.600 M45.714 82.652 C 45.953 83.038,47.406 82.997,47.811 82.592 C 47.962 82.441,47.505 82.318,46.796 82.318 C 46.087 82.318,45.600 82.468,45.714 82.652 M44.085 83.616 C 43.640 84.111,43.133 84.785,42.958 85.115 C 42.621 85.751,42.713 85.664,44.331 83.816 C 44.861 83.212,45.204 82.717,45.094 82.717 C 44.984 82.717,44.530 83.122,44.085 83.616 M40.160 89.186 L 39.361 90.014 40.237 89.560 C 41.161 89.083,41.833 88.295,41.282 88.335 C 41.105 88.349,40.599 88.731,40.160 89.186 M180.619 124.367 C 180.070 124.607,178.607 125.240,177.368 125.773 C 173.905 127.263,171.497 131.320,170.905 136.663 C 170.434 140.907,170.096 253.876,170.555 253.592 C 170.738 253.479,170.888 253.692,170.887 254.066 C 170.883 257.567,171.444 258.779,174.625 262.137 C 178.278 265.993,186.504 266.646,191.409 263.470 C 194.444 261.505,195.999 260.234,195.904 259.798 C 195.849 259.546,195.939 259.383,196.104 259.434 C 196.718 259.627,201.001 256.870,200.741 256.450 C 200.595 256.214,200.659 256.134,200.884 256.272 C 201.108 256.411,201.613 256.169,202.007 255.735 C 202.400 255.300,202.929 254.945,203.184 254.945 C 203.438 254.945,204.164 254.406,204.795 253.746 C 205.427 253.087,206.110 252.547,206.314 252.547 C 206.677 252.547,207.889 251.632,210.946 249.051 C 211.792 248.337,212.656 247.752,212.866 247.752 C 213.076 247.752,213.679 247.292,214.207 246.730 C 214.735 246.169,216.070 245.172,217.174 244.517 C 218.278 243.861,220.619 242.161,222.378 240.739 C 224.136 239.316,226.204 237.704,226.973 237.156 C 227.742 236.608,229.181 235.530,230.170 234.760 C 231.159 233.990,232.507 233.013,233.167 232.588 C 233.826 232.163,234.562 231.644,234.803 231.435 C 235.043 231.225,235.798 230.765,236.481 230.412 C 237.164 230.059,237.866 229.541,238.042 229.261 C 238.218 228.981,238.811 228.440,239.361 228.059 C 239.910 227.677,241.169 226.739,242.158 225.972 C 243.147 225.206,244.585 224.128,245.355 223.576 C 246.124 223.025,247.562 221.948,248.551 221.183 C 249.540 220.418,251.518 218.978,252.947 217.982 C 254.376 216.986,256.354 215.546,257.343 214.781 C 258.332 214.016,259.773 212.965,260.545 212.444 C 261.318 211.923,262.194 211.203,262.492 210.844 C 262.791 210.484,263.251 210.190,263.516 210.190 C 263.780 210.190,264.432 209.719,264.965 209.143 C 265.835 208.203,267.829 206.716,269.745 205.579 C 270.129 205.350,270.729 204.927,271.077 204.638 C 271.874 203.977,273.913 199.854,273.599 199.540 C 273.470 199.411,273.640 199.030,273.976 198.694 C 274.312 198.358,274.500 197.750,274.394 197.343 C 274.288 196.936,274.364 196.603,274.563 196.603 C 274.762 196.603,274.925 195.884,274.925 195.005 C 274.925 194.126,274.790 193.406,274.625 193.406 C 274.461 193.406,274.300 192.954,274.268 192.402 C 274.149 190.353,271.476 185.521,269.862 184.439 C 269.020 183.874,267.522 182.785,266.533 182.018 C 265.544 181.251,264.106 180.196,263.337 179.674 C 262.567 179.152,261.596 178.342,261.177 177.874 C 260.758 177.406,260.196 177.023,259.927 177.023 C 259.658 177.023,259.194 176.729,258.896 176.369 C 258.598 176.010,257.721 175.289,256.949 174.769 C 256.176 174.248,254.735 173.217,253.746 172.477 C 252.757 171.737,251.826 171.202,251.676 171.287 C 251.526 171.372,251.274 171.231,251.115 170.974 C 250.917 170.654,251.003 170.613,251.387 170.844 C 251.865 171.132,251.867 171.082,251.400 170.506 C 251.098 170.134,250.625 169.830,250.350 169.830 C 250.074 169.830,249.604 169.536,249.306 169.176 C 248.600 168.327,245.651 166.434,245.225 166.557 C 245.044 166.610,244.994 166.495,245.114 166.301 C 245.233 166.107,244.213 165.202,242.846 164.291 C 241.478 163.380,239.550 162.006,238.561 161.239 C 237.572 160.472,236.134 159.393,235.365 158.841 C 234.595 158.290,233.157 157.211,232.168 156.444 C 231.179 155.677,229.740 154.598,228.971 154.046 C 228.202 153.494,226.763 152.415,225.774 151.648 C 224.785 150.881,223.347 149.802,222.577 149.251 C 221.808 148.699,220.370 147.620,219.381 146.853 C 218.392 146.086,216.953 145.007,216.184 144.456 C 215.415 143.904,213.976 142.825,212.987 142.058 C 211.998 141.291,210.559 140.212,209.790 139.660 C 209.021 139.109,207.582 138.030,206.593 137.263 C 205.604 136.496,204.166 135.424,203.397 134.881 C 202.627 134.338,201.279 133.353,200.400 132.692 C 199.520 132.032,198.352 131.179,197.802 130.798 C 196.631 129.985,194.363 128.182,193.159 127.105 C 190.220 124.478,183.649 123.043,180.619 124.367 M14.386 142.234 C 14.386 142.881,14.568 143.522,14.792 143.660 C 15.015 143.798,15.094 144.079,14.968 144.283 C 14.842 144.488,14.948 144.655,15.204 144.655 C 15.501 144.655,15.556 144.402,15.356 143.956 C 15.183 143.571,15.029 142.762,15.014 142.158 C 14.975 140.676,14.386 140.748,14.386 142.234 M10.355 158.193 C 9.194 159.381,9.035 160.057,10.181 158.935 C 10.802 158.327,11.238 157.766,11.149 157.688 C 11.061 157.610,10.704 157.837,10.355 158.193 M194.085 161.797 C 194.788 162.369,196.096 163.377,196.991 164.036 C 197.887 164.695,199.331 165.774,200.200 166.434 C 201.068 167.093,202.507 168.172,203.397 168.831 C 204.286 169.491,205.725 170.569,206.593 171.229 C 207.462 171.888,208.906 172.967,209.802 173.626 C 210.698 174.286,212.029 175.320,212.761 175.924 C 213.493 176.528,214.226 177.023,214.390 177.023 C 214.554 177.023,215.380 177.607,216.226 178.322 C 219.139 180.781,220.490 181.818,220.781 181.818 C 220.942 181.818,221.672 182.313,222.404 182.917 C 223.135 183.521,224.467 184.555,225.363 185.215 C 226.259 185.874,227.703 186.953,228.571 187.612 C 229.440 188.272,230.879 189.351,231.768 190.010 C 232.658 190.669,234.078 191.748,234.925 192.408 C 235.771 193.067,236.801 193.810,237.213 194.059 C 237.935 194.495,237.929 194.548,237.059 195.487 C 236.563 196.024,236.293 196.599,236.460 196.766 C 236.627 196.933,236.583 197.010,236.364 196.937 C 235.722 196.724,232.895 198.562,233.173 199.011 C 233.312 199.236,233.278 199.371,233.097 199.311 C 232.703 199.181,230.647 200.461,228.172 202.378 C 225.658 204.324,222.980 206.194,222.706 206.194 C 222.579 206.194,221.791 206.778,220.955 207.493 C 220.119 208.207,218.700 209.331,217.800 209.990 C 214.556 212.368,212.771 213.743,211.888 214.542 C 211.393 214.990,210.604 215.563,210.135 215.814 C 209.665 216.065,207.862 217.375,206.127 218.725 C 200.601 223.025,199.624 223.767,198.503 224.513 C 197.899 224.915,197.540 225.379,197.704 225.543 C 197.868 225.707,197.822 225.789,197.602 225.725 C 197.026 225.559,194.648 226.894,193.529 228.013 C 193.002 228.540,192.389 228.971,192.166 228.971 C 191.943 228.971,191.871 229.149,192.005 229.366 C 192.145 229.593,191.985 229.660,191.629 229.523 C 190.959 229.266,190.983 230.565,190.983 194.805 C 190.983 186.783,190.989 175.628,190.996 170.016 L 191.009 159.812 191.908 160.284 C 192.403 160.544,193.382 161.225,194.085 161.797 M8.715 162.438 C 8.626 163.207,8.676 163.836,8.828 163.836 C 8.979 163.836,9.177 163.207,9.267 162.438 C 9.356 161.668,9.306 161.039,9.154 161.039 C 9.003 161.039,8.805 161.668,8.715 162.438 M7.992 166.034 C 7.992 166.583,8.061 167.033,8.145 167.033 C 8.229 167.033,8.384 166.583,8.489 166.034 C 8.594 165.485,8.525 165.035,8.336 165.035 C 8.147 165.035,7.992 165.485,7.992 166.034 M7.294 170.430 C 7.298 171.309,7.380 171.621,7.475 171.124 C 7.571 170.627,7.567 169.908,7.467 169.526 C 7.367 169.144,7.289 169.550,7.294 170.430 M6.517 176.024 C 6.520 177.343,6.594 177.834,6.683 177.116 C 6.772 176.397,6.770 175.319,6.679 174.718 C 6.588 174.118,6.515 174.705,6.517 176.024 M5.594 183.417 C 5.594 185.468,5.672 187.069,5.766 186.974 C 6.052 186.689,6.132 180.225,5.854 179.946 C 5.711 179.804,5.594 181.365,5.594 183.417 M4.975 202.597 C 4.975 210.400,5.029 213.591,5.094 209.690 C 5.160 205.789,5.160 199.406,5.094 195.504 C 5.029 191.603,4.975 194.795,4.975 202.597 M36.155 191.048 C 35.994 191.783,36.062 192.466,36.323 192.727 C 36.644 193.047,36.763 192.710,36.763 191.489 C 36.763 189.501,36.532 189.334,36.155 191.048 M36.276 206.094 C 36.188 207.358,36.261 208.562,36.439 208.771 C 36.617 208.980,36.763 207.946,36.763 206.474 C 36.763 203.191,36.495 202.981,36.276 206.094 M5.594 220.180 C 5.594 221.352,5.722 222.183,5.878 222.028 C 6.163 221.742,6.062 218.525,5.758 218.215 C 5.668 218.124,5.594 219.008,5.594 220.180 M36.890 222.438 C 37.033 222.581,36.839 222.926,36.458 223.205 C 36.077 223.483,35.915 223.860,36.097 224.043 C 36.280 224.225,36.684 224.026,36.996 223.599 C 37.684 222.658,37.718 222.178,37.096 222.178 C 36.840 222.178,36.747 222.295,36.890 222.438 " stroke="none" fill="#343434" fill-rule="evenodd"></path><path id="path1" d="M133.677 16.766 C 133.547 16.976,133.177 17.047,132.854 16.923 C 132.532 16.799,132.268 16.907,132.268 17.164 C 132.268 17.420,132.101 17.527,131.898 17.401 C 131.450 17.124,129.471 17.976,129.471 18.446 C 129.471 18.630,129.336 18.737,129.171 18.683 C 128.671 18.519,125.475 19.685,125.475 20.031 C 125.475 20.209,125.205 20.251,124.875 20.125 C 124.545 19.998,124.276 20.074,124.276 20.292 C 124.276 20.511,124.051 20.665,123.776 20.635 C 122.991 20.548,105.894 29.064,105.894 29.542 C 105.894 29.777,105.759 29.934,105.594 29.889 C 105.093 29.754,101.898 31.558,101.898 31.976 C 101.898 32.191,101.763 32.331,101.598 32.287 C 101.080 32.147,97.902 33.962,97.902 34.397 C 97.902 34.626,97.745 34.715,97.553 34.597 C 97.361 34.478,96.686 34.860,96.054 35.446 C 95.422 36.031,94.844 36.459,94.770 36.396 C 94.695 36.333,94.216 36.645,93.705 37.089 C 93.194 37.534,92.699 37.820,92.604 37.726 C 92.510 37.632,91.994 37.961,91.459 38.458 C 90.923 38.954,90.310 39.436,90.097 39.527 C 89.024 39.989,87.623 41.005,87.571 41.359 C 87.539 41.578,87.378 41.767,87.213 41.777 C 86.630 41.814,84.117 43.554,84.216 43.853 C 84.271 44.019,84.179 44.156,84.012 44.156 C 83.511 44.156,81.052 45.813,80.983 46.197 C 80.948 46.393,80.784 46.508,80.619 46.454 C 80.455 46.399,80.320 46.634,80.320 46.977 C 80.320 47.319,80.180 47.514,80.010 47.408 C 79.493 47.089,75.869 49.937,76.171 50.426 C 76.332 50.686,76.267 50.762,76.018 50.607 C 75.782 50.461,75.198 50.838,74.721 51.445 C 74.244 52.051,73.796 52.458,73.726 52.348 C 73.656 52.238,73.202 52.652,72.718 53.268 C 72.233 53.884,71.739 54.289,71.618 54.169 C 71.498 54.049,71.189 54.354,70.932 54.848 C 70.675 55.341,70.254 55.699,69.997 55.644 C 69.741 55.589,69.530 55.783,69.530 56.074 C 69.530 56.796,67.747 58.423,67.370 58.046 C 67.203 57.879,67.126 58.004,67.199 58.323 C 67.273 58.643,67.093 58.913,66.801 58.923 C 66.509 58.933,66.041 59.253,65.762 59.634 C 65.484 60.015,65.164 60.235,65.051 60.123 C 64.729 59.801,59.940 65.094,59.940 65.772 C 59.940 66.107,59.760 66.270,59.540 66.134 C 59.321 65.998,59.141 66.197,59.141 66.576 C 59.141 66.956,59.022 67.147,58.877 67.002 C 58.732 66.857,58.402 67.142,58.145 67.635 C 57.887 68.128,57.453 68.482,57.180 68.422 C 56.907 68.361,56.792 68.487,56.925 68.701 C 57.057 68.916,56.832 69.269,56.424 69.488 C 55.880 69.779,55.676 70.355,55.659 71.654 L 55.635 73.424 64.481 82.259 C 73.040 90.807,75.924 93.044,75.924 91.135 C 75.924 90.875,76.075 90.756,76.260 90.870 C 76.445 90.984,77.200 90.455,77.937 89.695 C 78.674 88.934,79.119 88.312,78.925 88.312 C 78.731 88.312,79.082 87.779,79.707 87.127 C 80.331 86.476,80.998 86.039,81.190 86.158 C 81.382 86.276,81.489 86.210,81.428 86.010 C 81.305 85.603,87.962 78.909,88.376 79.024 C 88.521 79.064,89.271 78.399,90.042 77.545 C 90.813 76.691,91.522 76.071,91.618 76.166 C 91.713 76.262,92.524 75.545,93.420 74.573 C 94.316 73.600,95.131 72.887,95.231 72.987 C 95.332 73.087,95.770 72.716,96.205 72.162 C 96.641 71.609,97.096 71.255,97.218 71.377 C 97.339 71.498,97.742 71.134,98.114 70.568 C 98.485 70.001,98.934 69.627,99.112 69.737 C 99.290 69.847,100.077 69.333,100.860 68.595 C 101.643 67.856,102.352 67.320,102.436 67.404 C 102.519 67.488,103.152 67.029,103.841 66.385 C 104.531 65.741,105.101 65.331,105.108 65.474 C 105.115 65.617,105.392 65.375,105.724 64.935 C 106.056 64.496,106.410 64.180,106.509 64.233 C 106.862 64.423,110.689 61.863,110.689 61.438 C 110.689 61.200,110.802 61.118,110.940 61.256 C 111.199 61.516,114.660 59.321,115.179 58.568 C 115.340 58.334,115.475 58.287,115.478 58.464 C 115.487 58.893,117.882 57.467,117.882 57.033 C 117.882 56.848,118.055 56.803,118.267 56.934 C 118.479 57.065,119.018 56.806,119.466 56.358 C 119.914 55.911,120.374 55.552,120.488 55.562 C 120.867 55.595,132.462 49.770,132.712 49.423 C 132.846 49.236,133.075 49.108,133.220 49.140 C 133.644 49.231,136.264 48.213,136.264 47.957 C 136.264 47.828,136.652 47.693,137.127 47.658 C 137.602 47.622,138.096 47.449,138.226 47.273 C 138.355 47.097,138.821 46.890,139.261 46.813 C 139.700 46.736,140.150 46.556,140.260 46.414 C 140.370 46.271,140.819 46.092,141.259 46.017 C 141.698 45.942,142.115 45.728,142.184 45.540 C 142.253 45.353,142.567 45.299,142.883 45.420 C 143.198 45.541,143.457 45.430,143.457 45.174 C 143.457 44.918,143.604 44.799,143.785 44.911 C 143.965 45.023,144.555 44.885,145.094 44.605 C 145.634 44.325,146.295 44.170,146.564 44.259 C 146.833 44.349,147.053 44.227,147.053 43.989 C 147.053 43.751,147.188 43.578,147.353 43.604 C 148.165 43.732,148.971 43.497,149.674 42.927 C 150.100 42.581,150.180 42.415,149.850 42.557 C 149.317 42.788,149.317 42.758,149.850 42.287 C 150.535 41.683,150.825 39.161,150.210 39.161 C 149.986 39.161,149.914 38.981,150.050 38.761 C 150.186 38.541,150.096 38.362,149.850 38.362 C 149.604 38.362,149.507 38.194,149.633 37.989 C 149.760 37.785,149.502 37.364,149.060 37.054 C 148.618 36.745,148.376 36.373,148.521 36.228 C 148.666 36.083,148.564 35.964,148.295 35.964 C 148.025 35.964,147.916 35.784,148.052 35.564 C 148.188 35.345,148.098 35.165,147.852 35.165 C 147.606 35.165,147.516 34.987,147.650 34.769 C 147.785 34.551,147.481 33.944,146.975 33.421 C 146.468 32.898,145.996 32.223,145.924 31.920 C 145.853 31.617,145.627 31.308,145.422 31.235 C 145.217 31.161,145.152 30.936,145.276 30.735 C 145.400 30.534,145.281 30.370,145.012 30.370 C 144.743 30.370,144.635 30.257,144.773 30.119 C 145.074 29.818,144.208 28.087,143.191 26.957 C 142.787 26.509,142.399 25.880,142.328 25.559 C 142.256 25.238,142.030 24.915,141.826 24.841 C 141.621 24.767,141.542 24.564,141.650 24.389 C 141.758 24.214,141.398 23.410,140.850 22.602 C 140.301 21.793,139.500 20.440,139.068 19.595 C 137.765 17.041,134.550 15.354,133.677 16.766 M43.967 84.228 C 43.322 85.011,42.904 85.828,43.037 86.044 C 43.171 86.260,43.106 86.329,42.892 86.197 C 42.679 86.065,42.191 86.487,41.809 87.135 C 41.427 87.782,41.241 88.312,41.397 88.312 C 41.553 88.312,41.013 88.960,40.197 89.753 C 39.381 90.546,38.795 91.276,38.895 91.376 C 38.995 91.476,38.645 92.024,38.116 92.595 C 37.587 93.165,37.228 93.705,37.317 93.794 C 37.406 93.883,37.051 94.416,36.529 94.980 C 36.007 95.544,35.677 96.162,35.795 96.354 C 35.914 96.546,35.824 96.703,35.596 96.703 C 35.161 96.703,33.346 99.882,33.486 100.400 C 33.530 100.564,33.390 100.699,33.174 100.699 C 32.957 100.699,32.308 101.643,31.729 102.797 C 31.151 103.951,30.384 105.241,30.024 105.663 C 29.497 106.283,29.486 106.374,29.970 106.133 C 30.343 105.947,30.310 106.048,29.881 106.400 C 29.162 106.991,22.615 119.880,23.034 119.880 C 23.167 119.880,23.051 120.150,22.777 120.480 C 22.504 120.809,22.414 121.079,22.577 121.079 C 22.741 121.079,22.652 121.347,22.380 121.676 C 21.710 122.483,19.555 127.073,19.846 127.073 C 19.974 127.073,19.854 127.343,19.580 127.672 C 19.307 128.002,19.199 128.272,19.341 128.272 C 19.483 128.272,19.325 128.690,18.990 129.200 C 18.279 130.285,16.325 135.864,16.656 135.864 C 16.780 135.864,16.683 136.103,16.440 136.395 C 16.198 136.687,15.946 137.271,15.881 137.694 C 15.815 138.116,15.595 138.727,15.393 139.052 C 14.866 139.898,14.791 144.299,15.309 143.979 C 15.555 143.827,15.623 143.978,15.479 144.352 C 15.084 145.383,18.499 147.445,20.979 147.673 C 21.199 147.693,22.082 148.014,22.942 148.387 C 28.970 150.999,32.671 152.440,33.367 152.445 C 33.586 152.446,33.856 152.547,33.966 152.668 C 34.944 153.748,39.874 155.214,40.575 154.633 C 40.896 154.366,41.159 154.282,41.159 154.446 C 41.159 154.609,41.427 154.521,41.754 154.249 C 42.081 153.978,42.260 153.612,42.151 153.435 C 42.042 153.259,42.089 153.055,42.255 152.981 C 42.528 152.860,45.460 144.285,45.766 142.711 C 45.836 142.352,45.928 141.968,45.971 141.858 C 46.014 141.748,46.027 141.523,46.001 141.359 C 45.975 141.194,46.134 141.059,46.354 141.059 C 46.573 141.059,46.715 140.924,46.668 140.759 C 46.622 140.594,46.808 140.055,47.082 139.560 C 47.356 139.066,47.480 138.661,47.357 138.661 C 47.235 138.661,47.429 138.212,47.789 137.662 C 48.149 137.113,48.311 136.663,48.149 136.663 C 47.987 136.663,48.063 136.412,48.318 136.105 C 48.573 135.797,48.860 135.136,48.957 134.636 C 49.053 134.135,49.292 133.622,49.487 133.496 C 49.831 133.274,50.399 131.850,50.598 130.709 C 50.652 130.402,50.864 130.042,51.069 129.910 C 51.453 129.663,53.770 124.965,53.608 124.761 C 53.559 124.698,53.796 124.369,54.135 124.029 C 54.475 123.690,54.650 123.247,54.526 123.045 C 54.401 122.843,54.477 122.677,54.695 122.677 C 55.034 122.677,55.788 121.082,55.595 120.771 C 55.558 120.712,55.885 120.280,56.322 119.812 C 56.758 119.343,57.021 118.807,56.906 118.621 C 56.790 118.434,56.846 118.282,57.028 118.282 C 57.426 118.282,58.984 115.466,58.841 115.007 C 58.786 114.830,58.908 114.685,59.112 114.685 C 59.316 114.685,60.153 113.561,60.973 112.188 C 61.793 110.814,62.733 109.376,63.062 108.991 C 63.391 108.606,63.498 108.289,63.299 108.286 C 63.100 108.282,63.126 108.147,63.358 107.986 C 64.180 107.412,65.926 104.820,65.666 104.560 C 65.520 104.415,65.622 104.296,65.891 104.296 C 66.160 104.296,66.277 104.128,66.151 103.924 C 66.024 103.719,66.104 103.439,66.327 103.301 C 66.865 102.968,66.851 101.499,66.310 101.499 C 66.077 101.499,65.998 101.319,66.134 101.099 C 66.270 100.879,66.180 100.699,65.934 100.699 C 65.688 100.699,65.578 100.553,65.688 100.374 C 65.799 100.195,62.123 96.285,57.520 91.686 C 52.917 87.087,49.148 83.502,49.145 83.720 C 49.141 83.938,48.968 83.846,48.760 83.516 C 47.963 82.256,45.263 82.657,43.967 84.228 M12.288 157.473 C 11.903 157.698,11.588 157.772,11.588 157.638 C 11.588 156.184,9.284 160.234,9.254 161.741 C 9.234 162.748,9.058 163.677,8.863 163.804 C 8.667 163.932,8.495 164.581,8.479 165.247 C 8.443 166.758,8.269 167.574,7.927 167.834 C 7.781 167.945,7.614 169.024,7.555 170.232 C 7.496 171.439,7.311 172.522,7.144 172.636 C 6.977 172.751,6.803 174.235,6.758 175.933 C 6.713 177.631,6.543 179.021,6.380 179.021 C 6.217 179.021,6.046 180.774,5.999 182.917 C 5.887 188.041,5.909 187.812,5.528 187.812 C 5.345 187.812,5.195 194.466,5.195 202.597 C 5.195 210.729,5.345 217.383,5.528 217.383 C 5.892 217.383,5.889 217.363,6.013 220.665 C 6.101 223.005,6.659 223.950,8.092 224.183 C 9.350 224.388,34.145 224.381,34.948 224.176 C 35.907 223.931,37.094 222.886,36.876 222.478 C 36.788 222.313,36.907 222.178,37.139 222.178 C 37.602 222.178,37.740 218.093,37.293 217.646 C 36.931 217.284,36.795 215.784,36.794 212.121 C 36.793 210.435,36.651 208.969,36.478 208.862 C 35.774 208.426,36.388 183.895,37.176 180.969 C 37.419 180.068,37.578 178.677,37.529 177.878 C 37.481 177.078,37.659 175.645,37.926 174.692 C 38.192 173.740,38.372 172.571,38.324 172.095 C 38.277 171.619,38.380 170.715,38.554 170.088 C 38.867 168.954,37.818 165.845,37.298 166.365 C 37.171 166.492,36.805 166.332,36.484 166.011 C 36.162 165.690,35.734 165.529,35.532 165.654 C 35.330 165.779,35.165 165.713,35.165 165.508 C 35.165 165.193,33.627 164.648,32.168 164.446 C 31.948 164.416,31.008 163.995,30.080 163.511 C 29.151 163.027,28.252 162.671,28.082 162.719 C 27.911 162.768,27.391 162.595,26.926 162.337 C 26.460 162.078,25.966 161.980,25.827 162.119 C 25.688 162.257,25.574 162.161,25.574 161.905 C 25.574 161.648,25.440 161.470,25.275 161.508 C 25.110 161.546,24.256 161.274,23.377 160.905 C 22.498 160.535,21.619 160.250,21.423 160.270 C 21.228 160.291,20.948 160.114,20.802 159.876 C 20.655 159.639,20.050 159.404,19.458 159.355 C 18.866 159.306,18.382 159.115,18.382 158.930 C 18.382 158.745,18.202 158.705,17.982 158.841 C 17.762 158.977,17.582 158.868,17.582 158.598 C 17.582 158.329,17.464 158.227,17.319 158.371 C 17.175 158.516,16.855 158.467,16.608 158.262 C 16.361 158.057,15.715 157.805,15.172 157.702 C 14.630 157.598,13.916 157.413,13.586 157.289 C 13.257 157.166,12.672 157.248,12.288 157.473 " stroke="none" fill="#838383" fill-rule="evenodd"></path></g></svg>