<?xml version="1.0" standalone="no"?>
<!DOCTYPE svg PUBLIC "-//W3C//DTD SVG 20010904//EN"
 "http://www.w3.org/TR/2001/REC-SVG-20010904/DTD/svg10.dtd">
<svg version="1.0" xmlns="http://www.w3.org/2000/svg"
 width="276.000000pt" height="192.000000pt" viewBox="0 0 276.000000 192.000000"
 preserveAspectRatio="xMidYMid meet">

<g transform="translate(0.000000,192.000000) scale(0.100000,-0.100000)"
fill="#000000" stroke="none">
<path d="M490 1825 l0 -95 95 0 95 0 0 95 0 95 -95 0 -95 0 0 -95z"/>
<path d="M980 1796 c-196 -42 -342 -132 -453 -281 -103 -137 -144 -246 -162
-426 l-6 -67 -63 -31 c-172 -85 -253 -229 -244 -433 4 -88 9 -106 42 -172 62
-126 180 -211 324 -236 47 -7 373 -10 1082 -8 l1015 3 51 27 c191 101 227 343
72 483 -33 30 -68 50 -102 59 -91 26 -124 23 -206 -17 -176 -86 -393 -89 -569
-7 -36 17 -80 42 -98 56 -17 13 -34 24 -37 24 -3 0 -6 -27 -6 -60 l0 -60 -190
0 -190 0 2 188 3 187 93 3 c79 2 93 5 88 18 -74 193 -47 421 71 597 l35 51
-21 17 c-22 18 -125 59 -196 79 -65 18 -261 21 -335 6z m-10 -186 l0 -90 -95
0 -95 0 0 90 0 90 95 0 95 0 0 -90z m300 -250 l0 -120 -120 0 -120 0 0 120 0
120 120 0 120 0 0 -120z m-122 -358 l3 -143 -143 3 -143 3 -3 120 c-4 180 -17
166 146 163 l137 -3 3 -143z"/>
<path d="M1926 1794 c-178 -43 -325 -181 -381 -357 -84 -265 52 -542 320 -648
52 -20 77 -23 185 -23 107 0 133 3 183 23 85 34 175 99 229 166 212 262 127
646 -173 794 -126 62 -237 76 -363 45z m262 -311 l3 -62 -63 -3 c-63 -3 -63
-3 -63 -33 l0 -30 118 -3 117 -3 0 -49 0 -49 38 -3 37 -3 0 -60 0 -60 -92 -3
-93 -3 0 65 0 65 43 3 c41 3 42 4 42 38 l0 35 -105 0 -105 0 0 -35 c0 -33 2
-35 40 -40 l40 -5 0 -60 0 -60 -92 -3 -93 -3 0 65 0 65 38 3 c35 3 37 5 37 38
l0 35 -105 0 -105 0 0 -35 c0 -34 1 -35 43 -38 l43 -3 -3 -62 -3 -62 -90 0
-90 0 0 60 0 60 38 3 37 3 0 50 0 49 108 0 c59 0 113 4 120 9 8 4 12 19 10 32
-3 22 -8 24 -65 27 l-63 3 0 58 c0 32 3 61 7 65 4 3 66 5 137 4 l131 -3 3 -62z"/>
</g>
</svg>
